<svg height="480pt" viewBox="0 0 480 480" width="480pt" xmlns="http://www.w3.org/2000/svg"><path d="m128 352 224-112-224-112zm0 0" fill="#ffda4a"/><path d="m240 480c-132.546875 0-240-107.453125-240-240s107.453125-240 240-240 240 107.453125 240 240c-.148438 132.484375-107.515625 239.851562-240 240zm0-448c-114.875 0-208 93.125-208 208s93.125 208 208 208 208-93.125 208-208c-.132812-114.820312-93.179688-207.867188-208-208zm0 0"/><path d="m128 368c-8.835938 0-16-7.164062-16-16v-16c.003906-7.101562 4.6875-13.355469 11.507812-15.347656 6.816407-1.996094 14.132813.742187 17.964844 6.722656l174.75-87.375-172.222656-86.113281v118.113281c0 8.835938-7.164062 16-16 16s-16-7.164062-16-16v-144c-.003906-5.546875 2.867188-10.699219 7.582031-13.613281 4.71875-2.917969 10.609375-3.1875 15.570313-.707031l224 112c5.429687 2.707031 8.863281 8.253906 8.863281 14.320312s-3.433594 11.613281-8.863281 14.320312l-224 112c-2.222656 1.105469-4.671875 1.683594-7.152344 1.679688zm0 0"/></svg>